<svg width="21" height="22" viewBox="0 0 21 22" fill="none" xmlns="http://www.w3.org/2000/svg">
<circle cx="10.5" cy="11.2144" r="10.5" fill="url(#paint0_linear_8_23)"/>
<path d="M10.1594 15.7144V10.3944C10.1594 10.1517 10.1594 9.90436 10.1594 9.65236C10.1687 9.39102 10.1734 9.12502 10.1734 8.85436C9.86535 9.13436 9.52468 9.38169 9.15135 9.59636C8.77802 9.80169 8.38602 9.94169 7.97535 10.0164L7.75135 8.02836C7.99402 8.00969 8.25068 7.94902 8.52135 7.84635C8.80135 7.74369 9.07668 7.61769 9.34735 7.46835C9.61802 7.31902 9.86068 7.16036 10.0754 6.99236C10.29 6.81502 10.4534 6.64236 10.5654 6.47436H12.4834V15.7144H10.1594Z" fill="#2D3949"/>
<defs>
<linearGradient id="paint0_linear_8_23" x1="0" y1="11.2144" x2="21" y2="11.2144" gradientUnits="userSpaceOnUse">
<stop stop-color="#2AF598"/>
<stop offset="1" stop-color="#009EFD"/>
</linearGradient>
</defs>
</svg>
